<svg width="24" height="24" viewBox="0 0 24 24" fill="none" xmlns="http://www.w3.org/2000/svg">
<path fill-rule="evenodd" clip-rule="evenodd" d="M20.1319 10.5064H6.0959L11.5469 5.05541C11.6598 4.94431 11.7496 4.81196 11.8111 4.66598C11.8726 4.52001 11.9047 4.36329 11.9053 4.20489C11.9059 4.04648 11.8752 3.88951 11.8149 3.74304C11.7546 3.59656 11.6658 3.46348 11.5538 3.35147C11.4418 3.23946 11.3087 3.15073 11.1623 3.09041C11.0158 3.03009 10.8588 2.99936 10.7004 3.00001C10.542 3.00065 10.3853 3.03266 10.2393 3.09417C10.0933 3.15568 9.96099 3.24549 9.8499 3.35841L2.3499 10.8584C2.3469 10.8604 2.3459 10.8644 2.3429 10.8674C2.17838 11.0353 2.0668 11.2478 2.022 11.4786C1.9772 11.7093 2.00115 11.9482 2.0909 12.1654C2.1509 12.3084 2.2359 12.4354 2.3429 12.5454L2.3499 12.5554L9.8499 20.0554C10.0849 20.2894 10.3919 20.4054 10.6979 20.4054C10.9352 20.4054 11.1671 20.335 11.3644 20.2033C11.5617 20.0715 11.7155 19.8841 11.8064 19.6649C11.8972 19.4458 11.9211 19.2046 11.8749 18.9718C11.8287 18.7391 11.7146 18.5253 11.5469 18.3574L6.0969 12.9064H20.1329C20.4512 12.9064 20.7564 12.78 20.9814 12.5549C21.2065 12.3299 21.3329 12.0247 21.3329 11.7064C21.3329 11.3882 21.2065 11.0829 20.9814 10.8579C20.7564 10.6328 20.4512 10.5064 20.1329 10.5064" fill="#191F28"/>
</svg>
