<svg width="24" height="24" viewBox="0 0 24 24" fill="none" xmlns="http://www.w3.org/2000/svg">
<g clip-path="url(#clip0_1581_10502)">
<path fill-rule="evenodd" clip-rule="evenodd" d="M8.37047 4C8.54773 3.99991 8.72327 4.03485 8.88698 4.10281C9.0507 4.17076 9.19938 4.2704 9.32447 4.396L16.0745 11.146C16.1999 11.2714 16.2994 11.4202 16.3672 11.584C16.4351 11.7478 16.47 11.9234 16.47 12.1007C16.47 12.2781 16.4351 12.4537 16.3672 12.6175C16.2994 12.7813 16.1999 12.9301 16.0745 13.0555L9.32447 19.8055C9.20009 19.9352 9.05106 20.0388 8.88612 20.1102C8.72118 20.1815 8.54365 20.2193 8.36394 20.2211C8.18423 20.223 8.00596 20.1889 7.83959 20.121C7.67321 20.053 7.52207 19.9525 7.39504 19.8254C7.26801 19.6983 7.16765 19.5471 7.09983 19.3806C7.03201 19.2142 6.9981 19.0359 7.00009 18.8562C7.00209 18.6765 7.03995 18.499 7.11145 18.3341C7.18295 18.1692 7.28665 18.0203 7.41647 17.896L13.211 12.1L7.41647 6.3055C7.2274 6.11678 7.09856 5.87621 7.04627 5.61424C6.99398 5.35226 7.02059 5.08067 7.12274 4.83382C7.22488 4.58698 7.39796 4.37599 7.62007 4.22756C7.84218 4.07913 8.10333 3.99994 8.37047 4Z" fill="#FFFFFF"/>
</g>
<defs>
<clipPath id="clip0_1581_10502">
<rect width="24" height="24" fill="white"/>
</clipPath>
</defs>
</svg>
