<svg width="21" height="20" viewBox="0 0 21 20" fill="none" xmlns="http://www.w3.org/2000/svg">
<path fill-rule="evenodd" clip-rule="evenodd" d="M10.5 15.2225C9.34094 15.2211 8.22976 14.7601 7.4102 13.9406C6.59064 13.121 6.12963 12.0098 6.12831 10.8508C6.12941 9.69162 6.59032 8.58022 7.4099 7.76048C8.22949 6.94074 9.3408 6.47962 10.5 6.47829C11.6591 6.47962 12.7705 6.94074 13.59 7.76048C14.4096 8.58022 14.8705 9.69162 14.8716 10.8508C14.8703 12.0098 14.4093 13.121 13.5897 13.9406C12.7702 14.7601 11.659 15.2211 10.5 15.2225ZM17.2608 4.27996H14.7991L13.8716 2.47246C13.7246 2.18632 13.5015 1.94626 13.2268 1.77866C12.9522 1.61107 12.6367 1.52242 12.315 1.52246H8.63747C8.30942 1.52242 7.98796 1.61459 7.70977 1.78846C7.43158 1.96233 7.20786 2.2109 7.06414 2.50579L6.20081 4.27996H3.73914C3.46329 4.27985 3.19013 4.33409 2.93525 4.43957C2.68037 4.54506 2.44877 4.69973 2.25368 4.89474C2.05858 5.08976 1.90383 5.3213 1.79824 5.57613C1.69265 5.83097 1.63831 6.10412 1.63831 6.37996V16.0475C1.63831 16.3233 1.69265 16.5965 1.79824 16.8513C1.90383 17.1061 2.05858 17.3377 2.25368 17.5327C2.44877 17.7277 2.68037 17.8824 2.93525 17.9878C3.19013 18.0933 3.46329 18.1476 3.73914 18.1475H17.2608C17.5367 18.1476 17.8098 18.0933 18.0647 17.9878C18.3196 17.8824 18.5512 17.7277 18.7463 17.5327C18.9414 17.3377 19.0961 17.1061 19.2017 16.8513C19.3073 16.5965 19.3616 16.3233 19.3616 16.0475V6.37996C19.3616 6.10412 19.3073 5.83097 19.2017 5.57613C19.0961 5.3213 18.9414 5.08976 18.7463 4.89474C18.5512 4.69973 18.3196 4.54506 18.0647 4.43957C17.8098 4.33409 17.5367 4.27985 17.2608 4.27996Z" fill="#191F28"/>
<path fill-rule="evenodd" clip-rule="evenodd" d="M10.4999 8.05322C9.75856 8.05411 9.04782 8.34906 8.52366 8.87337C7.99951 9.39768 7.70476 10.1085 7.7041 10.8499C7.70454 11.5913 7.99922 12.3023 8.52342 12.8266C9.04762 13.351 9.75849 13.6459 10.4999 13.6466C11.2414 13.6459 11.9522 13.351 12.4764 12.8266C13.0007 12.3023 13.2953 11.5913 13.2958 10.8499C13.2951 10.1085 13.0004 9.39768 12.4762 8.87337C11.9521 8.34906 11.2413 8.05411 10.4999 8.05322Z" fill="#191F28"/>
</svg>
