<svg width="24" height="24" viewBox="0 0 24 24" fill="none" xmlns="http://www.w3.org/2000/svg">
<path fill-rule="evenodd" clip-rule="evenodd" d="M16.98 12.747C16.7748 12.7522 16.5706 12.7162 16.3796 12.6412C16.1885 12.5662 16.0143 12.4538 15.8674 12.3104C15.7204 12.1671 15.6037 11.9958 15.524 11.8066C15.4443 11.6175 15.4032 11.4143 15.4033 11.209C15.4034 11.0037 15.4445 10.8005 15.5244 10.6114C15.6042 10.4223 15.7211 10.2511 15.8681 10.1078C16.0151 9.96459 16.1893 9.85223 16.3805 9.77738C16.5716 9.70253 16.7758 9.6667 16.981 9.672C17.382 9.68236 17.7631 9.84895 18.043 10.1363C18.3229 10.4236 18.4794 10.8089 18.4793 11.21C18.4792 11.6111 18.3224 11.9963 18.0423 12.2834C17.7622 12.5706 17.381 12.7369 16.98 12.747ZM12.066 12.747C11.8607 12.7522 11.6564 12.7162 11.4652 12.6412C11.274 12.5661 11.0997 12.4536 10.9527 12.3102C10.8056 12.1667 10.6888 11.9953 10.609 11.806C10.5293 11.6167 10.4882 11.4134 10.4883 11.208C10.4884 11.0026 10.5295 10.7993 10.6094 10.61C10.6893 10.4208 10.8062 10.2495 10.9534 10.1061C11.1005 9.96279 11.2748 9.85036 11.4661 9.77546C11.6574 9.70055 11.8617 9.6647 12.067 9.67C12.4683 9.68036 12.8496 9.84706 13.1297 10.1346C13.4097 10.4221 13.5664 10.8076 13.5663 11.209C13.5662 11.6104 13.4092 11.9958 13.129 12.2831C12.8487 12.5704 12.4673 12.7369 12.066 12.747ZM7.15102 12.747C6.94581 12.7522 6.74165 12.7162 6.55056 12.6412C6.35946 12.5662 6.18532 12.4538 6.03837 12.3104C5.89143 12.1671 5.77467 11.9958 5.69497 11.8066C5.61527 11.6175 5.57424 11.4143 5.57431 11.209C5.57438 11.0037 5.61553 10.8005 5.69536 10.6114C5.77518 10.4223 5.89206 10.2511 6.03909 10.1078C6.18613 9.96459 6.36035 9.85223 6.55149 9.77738C6.74263 9.70253 6.94682 9.6667 7.15202 9.672C7.553 9.68236 7.93407 9.84895 8.21396 10.1363C8.49386 10.4236 8.65044 10.8089 8.65031 11.21C8.65018 11.6111 8.49335 11.9963 8.21327 12.2834C7.93318 12.5706 7.55201 12.7369 7.15102 12.747ZM12 1.5C6.16702 1.5 1.42102 5.814 1.42102 11.117C1.42102 13.387 2.38102 16.476 5.05502 18.47L4.74002 21.764C4.72819 21.8854 4.74962 22.0077 4.80201 22.1178C4.8544 22.228 4.93577 22.3218 5.0374 22.3892C5.13904 22.4566 5.2571 22.4951 5.37894 22.5005C5.50077 22.5059 5.62179 22.4781 5.72902 22.42L9.16002 20.574C9.58702 20.618 10.841 20.734 12 20.734C17.833 20.734 22.579 16.42 22.579 11.117C22.579 5.814 17.833 1.5 12 1.5Z" fill="#8B95A1"/>
</svg>
