<svg width="14" height="14" viewBox="0 0 14 14" fill="none" xmlns="http://www.w3.org/2000/svg">
<path fill-rule="evenodd" clip-rule="evenodd" d="M7 0.912964C3.61725 0.912964 0.875 3.39388 0.875 6.45463C0.875 7.92871 1.5155 9.26455 2.55267 10.258L2.04633 12.7365C2.03555 12.7896 2.03973 12.8445 2.05839 12.8953C2.07705 12.9461 2.10947 12.9907 2.15202 13.0241C2.19457 13.0575 2.24557 13.0784 2.29933 13.0845C2.35308 13.0906 2.40747 13.0816 2.45642 13.0585L5.21617 11.756C5.79732 11.9156 6.39731 11.9965 7 11.9963C10.3827 11.9963 13.125 9.51538 13.125 6.45463C13.125 3.39388 10.3827 0.912964 7 0.912964Z" fill="#E2E2E2"/>
</svg>
