<svg width="25" height="25" viewBox="0 0 25 25" fill="none" xmlns="http://www.w3.org/2000/svg">
<path fill-rule="evenodd" clip-rule="evenodd" d="M12.625 2.065C6.826 2.065 2.125 6.318 2.125 11.565C2.125 14.092 3.223 16.382 5.001 18.085L4.133 22.334C4.11452 22.4249 4.12167 22.5191 4.15367 22.6062C4.18566 22.6932 4.24124 22.7696 4.31418 22.8269C4.38712 22.8842 4.47456 22.92 4.56671 22.9305C4.65886 22.9409 4.7521 22.9255 4.836 22.886L9.567 20.653C10.5633 20.9267 11.5918 21.0653 12.625 21.065C18.424 21.065 23.125 16.812 23.125 11.565C23.125 6.318 18.424 2.065 12.625 2.065Z" fill="#8B95A1"/>
</svg>
