<svg width="55" height="55" viewBox="0 0 55 55" fill="none" xmlns="http://www.w3.org/2000/svg">
<circle cx="27.5" cy="27.5" r="27.5" fill="white"/>
<path fill-rule="evenodd" clip-rule="evenodd" d="M48.6736 45.049C52.6247 40.2872 55 34.171 55 27.5C55 12.3122 42.6878 0 27.5 0C12.3122 0 0 12.3122 0 27.5C0 34.1586 2.36648 40.2644 6.30428 45.0223C8.84748 40.1327 15.4075 34.3991 27.482 34.3991C39.5785 34.3991 46.1404 40.1536 48.6736 45.049ZM37.8463 24.0597C38.4099 22.7011 38.6999 21.2449 38.6997 19.7744C38.6994 16.8045 37.5173 13.9564 35.4133 11.8566C33.3094 9.75681 30.456 8.57733 27.4809 8.57764C24.5058 8.57794 21.6526 9.758 19.5491 11.8582C18.5075 12.8982 17.6814 14.1327 17.1178 15.4913C16.5542 16.85 16.2642 18.3061 16.2643 19.7767C16.2646 22.7465 17.4468 25.5946 19.5507 27.6944C21.6547 29.7942 24.508 30.9737 27.4832 30.9734C28.9563 30.9732 30.415 30.6835 31.7759 30.1206C33.1368 29.5577 34.3734 28.7327 35.415 27.6928C36.4565 26.6529 37.2827 25.4183 37.8463 24.0597Z" fill="#191F28"/>
</svg>
