<svg width="14" height="12" viewBox="0 0 14 12" fill="#E2E2E2" xmlns="http://www.w3.org/2000/svg">
<path fill-rule="evenodd" clip-rule="evenodd" d="M6.36065 11.5574C6.74915 11.8141 7.25023 11.8141 7.63815 11.5574C8.8719 10.7431 11.5581 8.79649 12.7155 6.61832C14.2409 3.74482 12.4495 0.878906 10.0811 0.878906C8.73131 0.878906 7.91931 1.58416 7.47015 2.19024C7.4162 2.26447 7.34545 2.32488 7.26368 2.36654C7.18192 2.40819 7.09145 2.4299 6.99969 2.4299C6.90792 2.4299 6.81746 2.40819 6.73569 2.36654C6.65393 2.32488 6.58318 2.26447 6.52923 2.19024C6.08006 1.58416 5.26806 0.878906 3.91823 0.878906C1.5499 0.878906 -0.24152 3.74482 1.28448 6.61832C2.44065 8.79649 5.12806 10.7431 6.36065 11.5574Z"/>
</svg>
