<svg width="25" height="25" viewBox="0 0 25 25" fill="none" xmlns="http://www.w3.org/2000/svg">
<path fill-rule="evenodd" clip-rule="evenodd" d="M21.944 8.70401L13.497 1.98701C13.3203 1.84617 13.101 1.76947 12.875 1.76947C12.649 1.76947 12.4297 1.84617 12.253 1.98701L3.80499 8.70401C3.56954 8.89129 3.37937 9.12927 3.24865 9.40023C3.11793 9.6712 3.05002 9.96816 3.04999 10.269V19.687C3.04999 20.3235 3.30284 20.934 3.75293 21.3841C4.20302 21.8342 4.81347 22.087 5.44999 22.087H10.875V17.335C10.875 17.0698 10.9803 16.8154 11.1679 16.6279C11.3554 16.4404 11.6098 16.335 11.875 16.335H13.875C14.1402 16.335 14.3946 16.4404 14.5821 16.6279C14.7696 16.8154 14.875 17.0698 14.875 17.335V22.087H20.299C20.9355 22.087 21.546 21.8342 21.996 21.3841C22.4461 20.934 22.699 20.3235 22.699 19.687V10.27C22.699 9.96916 22.631 9.6722 22.5003 9.40123C22.3696 9.13027 22.1794 8.89229 21.944 8.70501" fill="#437CED"/>
</svg>
