<svg width="22" height="19" viewBox="0 0 22 19" fill="none" xmlns="http://www.w3.org/2000/svg">
<path fill-rule="evenodd" clip-rule="evenodd" d="M9.904 18.5269C10.57 18.9669 11.429 18.9669 12.094 18.5269C14.209 17.1309 18.814 13.7939 20.798 10.0599C23.413 5.13395 20.342 0.220947 16.282 0.220947C13.968 0.220947 12.576 1.42995 11.806 2.46895C11.7135 2.5962 11.5922 2.69976 11.4521 2.77117C11.3119 2.84258 11.1568 2.8798 10.9995 2.8798C10.8422 2.8798 10.6871 2.84258 10.5469 2.77117C10.4068 2.69976 10.2855 2.5962 10.193 2.46895C9.423 1.42995 8.031 0.220947 5.717 0.220947C1.657 0.220947 -1.414 5.13395 1.202 10.0599C3.184 13.7939 7.791 17.1309 9.904 18.5269Z" fill="#F2F4F5"/>
</svg>
