<svg width="21" height="20" viewBox="0 0 21 20" fill="none" xmlns="http://www.w3.org/2000/svg">
<path fill-rule="evenodd" clip-rule="evenodd" d="M10.5 0.51001C9.50544 0.51001 8.55161 0.905098 7.84835 1.60836C7.14509 2.31162 6.75 3.26545 6.75 4.26001V9.42918C6.75 10.4237 7.14509 11.3776 7.84835 12.0808C8.55161 12.7841 9.50544 13.1792 10.5 13.1792C11.4946 13.1792 12.4484 12.7841 13.1516 12.0808C13.8549 11.3776 14.25 10.4237 14.25 9.42918V4.26001C14.25 3.26545 13.8549 2.31162 13.1516 1.60836C12.4484 0.905098 11.4946 0.51001 10.5 0.51001Z" fill="#191F28"/>
<path fill-rule="evenodd" clip-rule="evenodd" d="M17.6675 9.42928C17.6675 9.20827 17.5797 8.99631 17.4235 8.84003C17.2672 8.68374 17.0552 8.59595 16.8342 8.59595C16.6132 8.59595 16.4012 8.68374 16.245 8.84003C16.0887 8.99631 16.0009 9.20827 16.0009 9.42928C15.9993 10.8877 15.4193 12.286 14.388 13.3173C13.3567 14.3485 11.9585 14.9286 10.5 14.9301C9.04189 14.9284 7.64397 14.3483 6.6129 13.3173C5.58183 12.2862 5.0018 10.8883 5.00004 9.43011C5.00004 9.2091 4.91224 8.99714 4.75596 8.84086C4.59968 8.68458 4.38772 8.59678 4.16671 8.59678C3.94569 8.59678 3.73373 8.68458 3.57745 8.84086C3.42117 8.99714 3.33337 9.2091 3.33337 9.43011C3.33337 13.0993 6.10671 16.1301 9.66671 16.5443V19.1668C9.66671 19.3878 9.7545 19.5998 9.91078 19.756C10.0671 19.9123 10.279 20.0001 10.5 20.0001C10.7211 20.0001 10.933 19.9123 11.0893 19.756C11.2456 19.5998 11.3334 19.3878 11.3334 19.1668V16.5443C14.8942 16.1293 17.6675 13.0993 17.6675 9.42928Z" fill="#191F28"/>
</svg>
