<svg width="22" height="22" viewBox="0 0 22 22" fill="none" xmlns="http://www.w3.org/2000/svg">
<path fill-rule="evenodd" clip-rule="evenodd" d="M11 14.667C10.5185 14.667 10.0417 14.5722 9.59689 14.3879C9.15205 14.2036 8.74786 13.9336 8.40739 13.5931C8.06693 13.2526 7.79685 12.8484 7.6126 12.4036C7.42834 11.9588 7.3335 11.482 7.3335 11.0005C7.3335 10.519 7.42834 10.0422 7.6126 9.59739C7.79685 9.15255 8.06693 8.74836 8.40739 8.40789C8.74786 8.06743 9.15205 7.79735 9.59689 7.6131C10.0417 7.42884 10.5185 7.334 11 7.334C11.9724 7.334 12.905 7.72029 13.5926 8.40789C14.2802 9.0955 14.6665 10.0281 14.6665 11.0005C14.6665 11.9729 14.2802 12.9055 13.5926 13.5931C12.905 14.2807 11.9724 14.667 11 14.667ZM20.033 12.952C19.53 12.4311 19.2492 11.7351 19.25 11.011V10.99C19.2492 10.2659 19.53 9.56988 20.033 9.049L20.972 8.079C21.358 7.679 21.432 7.071 21.155 6.59L19.897 4.412C19.762 4.17755 19.5542 3.9935 19.3052 3.88775C19.0562 3.78201 18.7795 3.76033 18.517 3.826L17.202 4.154C16.4958 4.3308 15.7485 4.2242 15.12 3.857L15.102 3.847C14.4829 3.48722 14.0274 2.90155 13.831 2.213L13.455 0.904C13.3809 0.643683 13.2239 0.414617 13.0079 0.251495C12.7919 0.0883743 12.5287 8.4899e-05 12.258 0L9.742 0C9.187 0 8.697 0.369 8.545 0.904L8.14 2.313C7.96218 2.94272 7.54418 3.47743 6.976 3.802C6.91731 3.83482 6.8593 3.86882 6.802 3.904C6.23191 4.2435 5.55058 4.34345 4.907 4.182L3.482 3.826C3.21965 3.76041 2.94308 3.78202 2.6941 3.88756C2.44512 3.99311 2.23728 4.17685 2.102 4.411L0.845 6.59C0.709799 6.82444 0.654532 7.09649 0.687544 7.3651C0.720556 7.6337 0.840055 7.88428 1.028 8.079L1.967 9.049C2.47 9.57 2.751 10.266 2.751 10.989V11.011C2.751 11.735 2.47 12.431 1.967 12.952L1.464 13.472C1.15033 13.7963 0.950799 14.214 0.89559 14.6618C0.840381 15.1096 0.932495 15.5632 1.158 15.954L2.103 17.589C2.381 18.071 2.943 18.31 3.483 18.175L4.908 17.819C5.55158 17.6576 6.23291 17.7575 6.803 18.097C6.86 18.132 6.918 18.166 6.977 18.199C7.546 18.521 7.961 19.058 8.141 19.688L8.545 21.097C8.697 21.632 9.187 22 9.742 22H12.258C12.813 22 13.303 21.632 13.455 21.097L13.859 19.688C14.039 19.058 14.454 18.521 15.023 18.199C15.082 18.166 15.14 18.132 15.197 18.097C15.7671 17.7575 16.4484 17.6576 17.092 17.819L18.517 18.175C18.7793 18.2406 19.0559 18.219 19.3049 18.1134C19.5539 18.0079 19.7617 17.8242 19.897 17.59L21.155 15.411C21.2902 15.1766 21.3455 14.9045 21.3125 14.6359C21.2794 14.3673 21.1599 14.1167 20.972 13.922L20.032 12.952H20.033Z" fill="#4E5968"/>
</svg>
