<svg width="32" height="32" viewBox="0 0 32 32" fill="none" xmlns="http://www.w3.org/2000/svg">
<mask id="path-1-inside-1_1021_7910" fill="white">
<path fill-rule="evenodd" clip-rule="evenodd" d="M17.5387 2.56933L20.6414 8.85599C20.8907 9.36133 21.3734 9.71199 21.932 9.79333L28.8694 10.8013C30.2747 11.0053 30.8374 12.7347 29.8187 13.7253L24.7987 18.6187C24.5997 18.8127 24.4509 19.0522 24.365 19.3165C24.279 19.5808 24.2586 19.862 24.3054 20.136L25.4907 27.0453C25.7307 28.4467 24.2614 29.5133 23.004 28.8533L16.7987 25.5907C16.5528 25.4613 16.2792 25.3937 16.0014 25.3937C15.7235 25.3937 15.4499 25.4613 15.204 25.5907L8.99869 28.8533C7.74003 29.5133 6.27069 28.4467 6.51069 27.0453L7.69602 20.136C7.7427 19.862 7.7222 19.5808 7.63627 19.3166C7.55034 19.0523 7.40156 18.8128 7.20269 18.6187L2.18269 13.7253C1.16536 12.7347 1.72669 11.0053 3.13336 10.8013L10.0694 9.79333C10.628 9.71199 11.112 9.36133 11.3614 8.85599L14.4627 2.56933C15.092 1.29466 16.9094 1.29466 17.5387 2.56933"/>
</mask>
<path fill-rule="evenodd" clip-rule="evenodd" d="M17.5387 2.56933L20.6414 8.85599C20.8907 9.36133 21.3734 9.71199 21.932 9.79333L28.8694 10.8013C30.2747 11.0053 30.8374 12.7347 29.8187 13.7253L24.7987 18.6187C24.5997 18.8127 24.4509 19.0522 24.365 19.3165C24.279 19.5808 24.2586 19.862 24.3054 20.136L25.4907 27.0453C25.7307 28.4467 24.2614 29.5133 23.004 28.8533L16.7987 25.5907C16.5528 25.4613 16.2792 25.3937 16.0014 25.3937C15.7235 25.3937 15.4499 25.4613 15.204 25.5907L8.99869 28.8533C7.74003 29.5133 6.27069 28.4467 6.51069 27.0453L7.69602 20.136C7.7427 19.862 7.7222 19.5808 7.63627 19.3166C7.55034 19.0523 7.40156 18.8128 7.20269 18.6187L2.18269 13.7253C1.16536 12.7347 1.72669 11.0053 3.13336 10.8013L10.0694 9.79333C10.628 9.71199 11.112 9.36133 11.3614 8.85599L14.4627 2.56933C15.092 1.29466 16.9094 1.29466 17.5387 2.56933" fill="#FFDC5F"/>
<path d="M20.6414 8.85599L21.5381 8.41352L21.5381 8.41343L20.6414 8.85599ZM21.932 9.79333L21.788 10.7829L21.7882 10.7829L21.932 9.79333ZM28.8694 10.8013L28.7256 11.7909L28.7257 11.791L28.8694 10.8013ZM29.8187 13.7253L29.1215 13.0084L29.1207 13.0092L29.8187 13.7253ZM24.7987 18.6187L24.1007 17.9026L24.1005 17.9028L24.7987 18.6187ZM24.3054 20.136L23.3196 20.3044L23.3198 20.3051L24.3054 20.136ZM25.4907 27.0453L26.4763 26.8765L26.4763 26.8762L25.4907 27.0453ZM23.004 28.8533L22.5386 29.7384L22.5392 29.7388L23.004 28.8533ZM16.7987 25.5907L16.333 26.4756L16.3333 26.4758L16.7987 25.5907ZM15.204 25.5907L15.6694 26.4758L15.6698 26.4756L15.204 25.5907ZM8.99869 28.8533L9.46308 29.739L9.46407 29.7384L8.99869 28.8533ZM6.51069 27.0453L5.52509 26.8762L5.52504 26.8765L6.51069 27.0453ZM7.69602 20.136L8.68163 20.3051L8.68182 20.304L7.69602 20.136ZM7.20269 18.6187L7.90122 17.9031L7.90071 17.9026L7.20269 18.6187ZM2.18269 13.7253L2.88071 13.0092L2.88035 13.0089L2.18269 13.7253ZM3.13336 10.8013L3.27688 11.791L3.27718 11.7909L3.13336 10.8013ZM10.0694 9.79333L10.2132 10.7829L10.2134 10.7829L10.0694 9.79333ZM11.3614 8.85599L12.2581 9.29847L12.2582 9.29841L11.3614 8.85599ZM14.4627 2.56933L13.566 2.12662L13.5659 2.12691L14.4627 2.56933ZM16.642 3.01189L19.7446 9.29856L21.5381 8.41343L18.4354 2.12676L16.642 3.01189ZM19.7446 9.29847C20.1397 10.0994 20.9042 10.6542 21.788 10.7829L22.0761 8.80376C21.8426 8.76976 21.6416 8.6233 21.5381 8.41352L19.7446 9.29847ZM21.7882 10.7829L28.7256 11.7909L29.0131 9.81172L22.0758 8.80372L21.7882 10.7829ZM28.7257 11.791C29.3117 11.876 29.5445 12.5971 29.1215 13.0084L30.5159 14.4422C32.1303 12.8722 31.2376 10.1346 29.013 9.8117L28.7257 11.791ZM29.1207 13.0092L24.1007 17.9026L25.4967 19.3347L30.5167 14.4414L29.1207 13.0092ZM24.1005 17.9028C23.7856 18.2099 23.55 18.589 23.414 19.0073L25.3159 19.6257C25.3518 19.5154 25.4139 19.4155 25.4969 19.3345L24.1005 17.9028ZM23.414 19.0073C23.2779 19.4256 23.2456 19.8707 23.3196 20.3044L25.2911 19.9676C25.2716 19.8533 25.2801 19.736 25.3159 19.6257L23.414 19.0073ZM23.3198 20.3051L24.5051 27.2144L26.4763 26.8762L25.291 19.9669L23.3198 20.3051ZM24.505 27.2141C24.6051 27.7986 23.9929 28.243 23.4688 27.9679L22.5392 29.7388C24.5298 30.7836 26.8562 29.0948 26.4763 26.8765L24.505 27.2141ZM23.4694 27.9682L17.2641 24.7055L16.3333 26.4758L22.5386 29.7384L23.4694 27.9682ZM17.2644 24.7057C16.875 24.5008 16.4415 24.3937 16.0014 24.3937V26.3937C16.1169 26.3937 16.2307 26.4218 16.333 26.4756L17.2644 24.7057ZM16.0014 24.3937C15.5612 24.3937 15.1278 24.5008 14.7383 24.7057L15.6698 26.4756C15.772 26.4218 15.8858 26.3937 16.0014 26.3937V24.3937ZM14.7386 24.7055L8.53331 27.9682L9.46407 29.7384L15.6694 26.4758L14.7386 24.7055ZM8.5343 27.9677C8.00781 28.2438 7.39641 27.7976 7.49634 27.2141L5.52504 26.8765C5.14498 29.0957 7.47224 30.7829 9.46308 29.739L8.5343 27.9677ZM7.49629 27.2144L8.68163 20.3051L6.71042 19.9669L5.52509 26.8762L7.49629 27.2144ZM8.68182 20.304C8.75567 19.8705 8.72323 19.4255 8.58726 19.0074L6.68527 19.6258C6.72116 19.7361 6.72973 19.8536 6.71023 19.968L8.68182 20.304ZM8.58726 19.0074C8.4513 18.5892 8.21588 18.2102 7.90122 17.9031L6.50416 19.3342C6.58723 19.4153 6.64938 19.5154 6.68527 19.6258L8.58726 19.0074ZM7.90071 17.9026L2.88071 13.0092L1.48468 14.4414L6.50468 19.3347L7.90071 17.9026ZM2.88035 13.0089C2.45733 12.597 2.69047 11.876 3.27688 11.791L2.98984 9.81168C0.762912 10.1346 -0.126612 12.8724 1.48504 14.4418L2.88035 13.0089ZM3.27718 11.7909L10.2132 10.7829L9.92554 8.80372L2.98954 9.81172L3.27718 11.7909ZM10.2134 10.7829C11.0962 10.6544 11.8625 10.1003 12.2581 9.29847L10.4646 8.41352C10.3615 8.62233 10.1599 8.76961 9.92529 8.80376L10.2134 10.7829ZM12.2582 9.29841L15.3595 3.01174L13.5659 2.12691L10.4645 8.41358L12.2582 9.29841ZM15.3594 3.01203C15.6218 2.48043 16.3796 2.48043 16.642 3.01203L18.4354 2.12662C17.4392 0.108896 14.5622 0.108896 13.566 2.12662L15.3594 3.01203Z" fill="#FFC804" mask="url(#path-1-inside-1_1021_7910)"/>
</svg>
