<svg width="24" height="24" viewBox="0 0 24 24" fill="none" xmlns="http://www.w3.org/2000/svg">
<g clip-path="url(#clip0_381_5881)">
<path fill-rule="evenodd" clip-rule="evenodd" d="M12 0.612C10.8065 0.612 9.66193 1.08611 8.81802 1.93002C7.97411 2.77393 7.5 3.91853 7.5 5.112V11.315C7.5 12.5085 7.97411 13.6531 8.81802 14.497C9.66193 15.3409 10.8065 15.815 12 15.815C13.1935 15.815 14.3381 15.3409 15.182 14.497C16.0259 13.6531 16.5 12.5085 16.5 11.315V5.112C16.5 3.91853 16.0259 2.77393 15.182 1.93002C14.3381 1.08611 13.1935 0.612 12 0.612Z" fill="#E2E2E2"/>
<path fill-rule="evenodd" clip-rule="evenodd" d="M20.601 11.315C20.601 11.0498 20.4957 10.7954 20.3081 10.6079C20.1206 10.4204 19.8662 10.315 19.601 10.315C19.3358 10.315 19.0815 10.4204 18.8939 10.6079C18.7064 10.7954 18.601 11.0498 18.601 11.315C18.5992 13.0651 17.9031 14.743 16.6656 15.9806C15.4281 17.2181 13.7501 17.9142 12 17.916C10.2502 17.9139 8.57274 17.2179 7.33546 15.9806C6.09818 14.7433 5.40214 13.0658 5.40002 11.316C5.40002 11.0508 5.29467 10.7964 5.10713 10.6089C4.91959 10.4214 4.66524 10.316 4.40002 10.316C4.13481 10.316 3.88045 10.4214 3.69292 10.6089C3.50538 10.7964 3.40002 11.0508 3.40002 11.316C3.40002 15.719 6.72802 19.356 11 19.853V23C11 23.2652 11.1054 23.5196 11.2929 23.7071C11.4805 23.8946 11.7348 24 12 24C12.2652 24 12.5196 23.8946 12.7071 23.7071C12.8947 23.5196 13 23.2652 13 23V19.853C17.273 19.355 20.601 15.719 20.601 11.315Z" fill="#E2E2E2"/>
</g>
<defs>
<clipPath id="clip0_381_5881">
<rect width="24" height="24" fill="white"/>
</clipPath>
</defs>
</svg>
