<svg width="18" height="24" viewBox="0 0 18 24" fill="none" xmlns="http://www.w3.org/2000/svg">
<path fill-rule="evenodd" clip-rule="evenodd" d="M9.375 0.112C8.18153 0.112 7.03693 0.586105 6.19302 1.43002C5.34911 2.27393 4.875 3.41853 4.875 4.612V10.815C4.875 12.0085 5.34911 13.1531 6.19302 13.997C7.03693 14.8409 8.18153 15.315 9.375 15.315C10.5685 15.315 11.7131 14.8409 12.557 13.997C13.4009 13.1531 13.875 12.0085 13.875 10.815V4.612C13.875 3.41853 13.4009 2.27393 12.557 1.43002C11.7131 0.586105 10.5685 0.112 9.375 0.112" fill="#E2E2E2"/>
<path fill-rule="evenodd" clip-rule="evenodd" d="M17.976 10.815C17.976 10.5498 17.8706 10.2954 17.6831 10.1079C17.4956 9.92036 17.2412 9.815 16.976 9.815C16.7108 9.815 16.4564 9.92036 16.2689 10.1079C16.0814 10.2954 15.976 10.5498 15.976 10.815C15.9741 12.5651 15.2781 14.243 14.0406 15.4806C12.803 16.7181 11.1251 17.4142 9.37499 17.416C7.62522 17.4139 5.94771 16.7179 4.71043 15.4806C3.47315 14.2433 2.77711 12.5658 2.77499 10.816C2.77499 10.5508 2.66964 10.2964 2.4821 10.1089C2.29456 9.92136 2.04021 9.816 1.77499 9.816C1.50978 9.816 1.25542 9.92136 1.06789 10.1089C0.880351 10.2964 0.774994 10.5508 0.774994 10.816C0.774994 15.219 4.10299 18.856 8.37499 19.353V22.5C8.37499 22.7652 8.48035 23.0196 8.66789 23.2071C8.85542 23.3946 9.10978 23.5 9.37499 23.5C9.64021 23.5 9.89456 23.3946 10.0821 23.2071C10.2696 23.0196 10.375 22.7652 10.375 22.5V19.353C14.648 18.855 17.976 15.219 17.976 10.815Z" fill="#E2E2E2"/>
</svg>
