<svg width="111" height="19" viewBox="0 0 111 19" fill="none" xmlns="http://www.w3.org/2000/svg">
<path fill-rule="evenodd" clip-rule="evenodd" d="M66.8734 18.7517C72.228 18.7517 76.5688 14.5818 76.5688 9.43799C76.5688 4.29416 72.228 0.124268 66.8734 0.124268C61.5188 0.124268 57.178 4.29416 57.178 9.43799C57.178 14.5818 61.5188 18.7517 66.8734 18.7517ZM66.8735 14.5295C69.5508 14.5295 71.7212 12.2499 71.7212 9.43799C71.7212 6.62603 69.5508 4.34649 66.8735 4.34649C64.1961 4.34649 62.0258 6.62603 62.0258 9.43799C62.0258 12.2499 64.1961 14.5295 66.8735 14.5295Z" fill="#191F28"/>
<path fill-rule="evenodd" clip-rule="evenodd" d="M46.1266 18.7517C51.4812 18.7517 55.822 14.5818 55.822 9.43799C55.822 4.29416 51.4812 0.124268 46.1266 0.124268C40.7719 0.124268 36.4312 4.29416 36.4312 9.43799C36.4312 14.5818 40.7719 18.7517 46.1266 18.7517ZM46.1266 14.5295C48.8039 14.5295 50.9743 12.2499 50.9743 9.43799C50.9743 6.62603 48.8039 4.34649 46.1266 4.34649C43.4493 4.34649 41.2789 6.62603 41.2789 9.43799C41.2789 12.2499 43.4493 14.5295 46.1266 14.5295Z" fill="#191F28"/>
<path fill-rule="evenodd" clip-rule="evenodd" d="M81.2041 1.39839L84.6074 9.43824C85.1211 10.6518 86.8409 10.6518 87.3546 9.43823L90.7829 1.3392C91.2111 0.327708 92.3784 -0.145733 93.3902 0.281746L94.2033 0.625296C95.2151 1.05277 95.6882 2.2193 95.26 3.23079L89.0209 17.9701C88.7874 18.5219 88.2464 18.8803 87.6473 18.8803H84.3147C83.7156 18.8803 83.1746 18.5219 82.9411 17.9701L76.727 3.28998C76.2988 2.27848 76.772 1.11196 77.7838 0.684478L78.5969 0.340929C79.6087 -0.0865501 80.776 0.38689 81.2041 1.39839Z" fill="#191F28"/>
<path fill-rule="evenodd" clip-rule="evenodd" d="M99.0671 0C97.8314 0 96.8297 1.00172 96.8297 2.2374V16.7626C96.8297 17.9983 97.8314 19 99.0671 19H99.5643L99.5761 19H109.508C110.332 19 111 18.3322 111 17.5084V16.5177C111 15.6939 110.332 15.0261 109.508 15.0261L103.293 15.0261C102.47 15.0261 101.802 14.3583 101.802 13.5345V12.9164C101.802 12.0926 102.47 11.4248 103.293 11.4248H108.638C109.462 11.4248 110.13 10.757 110.13 9.93323V9.43931C110.13 8.61552 109.462 7.94771 108.638 7.94771L103.293 7.9477C102.47 7.9477 101.802 7.27989 101.802 6.4561V5.46546C101.802 4.64167 102.47 3.97386 103.293 3.97386L109.508 3.97386C110.332 3.97386 111 3.30604 111 2.48225V1.4916C111 0.667813 110.332 0 109.508 0H99.5643H99.1915H99.0671Z" fill="#191F28"/>
<path d="M20.5096 18.3046C19.8231 18.3046 19.2666 17.7481 19.2666 17.0616V1.98812C19.2666 1.30163 19.8231 0.745117 20.5096 0.745117H27.3014C28.9083 0.745117 30.2893 1.00433 31.4443 1.52275C32.616 2.04117 33.5199 2.79372 34.156 3.7804C34.7921 4.75035 35.1101 5.90426 35.1101 7.24212C35.1101 8.56327 34.7921 9.70881 34.156 10.6788C33.5199 11.632 32.616 12.3678 31.4443 12.8862C30.2893 13.3879 28.9083 13.6388 27.3014 13.6388H23.6103C23.0419 13.6388 22.7661 12.9438 23.1797 12.554C23.5803 12.1766 24.2381 12.4606 24.2381 13.011V17.0616C24.2381 17.7481 23.6816 18.3046 22.9951 18.3046H20.5096ZM30.7949 18.3046C30.3843 18.3046 30.0001 18.1018 29.7685 17.7626L27.0975 13.852C26.534 13.0269 27.1248 11.9079 28.124 11.9079H30.4135C30.823 11.9079 31.2062 12.1096 31.438 12.4471L34.1244 16.3578C34.6909 17.1826 34.1004 18.3046 33.0998 18.3046H30.7949ZM24.2381 10.4585C24.2381 11.0496 23.519 11.3406 23.1079 10.9159C22.704 10.4986 22.9997 9.80079 23.5804 9.80079H27.0001C28.0379 9.80079 28.8079 9.57503 29.3101 9.1235C29.829 8.67197 30.0884 8.04484 30.0884 7.24212C30.0884 6.42268 29.829 5.7872 29.3101 5.33567C28.8079 4.88414 28.0379 4.65837 27.0001 4.65837H23.5804C22.9997 4.65837 22.704 3.9606 23.1079 3.54329C23.519 3.11857 24.2381 3.4096 24.2381 4.0007V10.4585Z" fill="#191F28"/>
<path fill-rule="evenodd" clip-rule="evenodd" d="M9.65112 18.6275C8.26762 18.6275 6.98414 18.4101 5.80067 17.9755C4.6172 17.5241 3.59208 16.8889 2.72532 16.0698C1.87522 15.2506 1.20847 14.2894 0.725084 13.1861C0.241695 12.0661 0 10.8374 0 9.50001C0 8.16265 0.241695 6.94232 0.725084 5.839C1.20847 4.71896 1.88355 3.74938 2.75032 2.93025C3.61709 2.11112 4.6422 1.48424 5.82567 1.04959C7.02581 0.598237 8.3343 0.372559 9.75113 0.372559C11.4013 0.372559 12.8765 0.648388 14.1766 1.20005C15.0149 1.55574 15.7597 2.0122 16.4109 2.56943C17.0148 3.0862 16.9399 4.00157 16.3512 4.53569L15.3485 5.44557C14.7415 5.99636 13.8161 5.93068 13.1419 5.46457C12.8702 5.27677 12.5901 5.11739 12.3014 4.98643C11.618 4.6521 10.8513 4.48493 10.0012 4.48493C9.25107 4.48493 8.56766 4.60194 7.95092 4.83598C7.33418 5.07002 6.80912 5.41272 6.37574 5.86407C5.94236 6.29871 5.60065 6.8253 5.35062 7.44383C5.11726 8.04563 5.00058 8.73103 5.00058 9.50001C5.00058 10.2356 5.11726 10.9126 5.35062 11.5311C5.60065 12.1496 5.94236 12.6846 6.37574 13.1359C6.80912 13.5706 7.32585 13.9133 7.92592 14.164C8.54266 14.3981 9.21773 14.5151 9.95115 14.5151C10.6846 14.5151 11.4013 14.3981 12.1014 14.164C12.2759 14.1015 12.4509 14.0286 12.6265 13.9454V11.6732H11.5598C10.7361 11.6732 10.0682 11.0054 10.0682 10.1816V9.43931C10.0682 8.61552 10.736 7.94771 11.5598 7.94771H15.5126C16.3364 7.94771 17.0042 8.61552 17.0042 9.43931V11.6732H17.002V15.0668C16.9861 15.113 16.9694 15.1586 16.9519 15.2036C16.6566 15.9641 16.1319 16.5745 15.4833 17.0587C14.9654 17.4453 14.3737 17.7473 13.7709 17.9769C13.6901 18.0021 13.6086 18.0268 13.5266 18.0507C12.2097 18.4352 10.9179 18.6275 9.65112 18.6275Z" fill="#191F28"/>
</svg>
