<svg width="24" height="24" viewBox="0 0 24 24" fill="none" xmlns="http://www.w3.org/2000/svg">
<path d="M4.42105 8.66667V14.3333C4.42105 14.8856 3.92498 15.3093 3.49089 15.6507C3.21475 15.8679 3 16.2178 3 16.7619C3 17.9048 3.94737 18.1905 4.42105 18.1905H19.5789C20.0526 18.1905 21 17.9048 21 16.7619C21 16.2178 20.7852 15.8679 20.5091 15.6507C20.075 15.3093 19.5789 14.8856 19.5789 14.3333V8.66667C19.4211 6.44444 17.6842 2 12 2C6.31579 2 4.57895 6.44444 4.42105 8.66667Z" stroke="#191F28" stroke-width="2"/>
<path d="M8.21045 18.1905C8.36834 19.4603 9.34729 22 11.9999 22C14.6526 22 15.6315 19.4603 15.7894 18.1905" stroke="#191F28" stroke-width="2"/>
</svg>
