<svg width="24" height="24" viewBox="0 0 24 24" fill="none" xmlns="http://www.w3.org/2000/svg">
<path fill-rule="evenodd" clip-rule="evenodd" d="M15.0996 20.2212C14.9223 20.2213 14.7468 20.1863 14.583 20.1184C14.4193 20.0504 14.2707 19.9508 14.1456 19.8252L7.39556 13.0752C7.27016 12.9498 7.17068 12.801 7.10281 12.6372C7.03493 12.4733 7 12.2978 7 12.1204C7 11.9431 7.03493 11.7675 7.10281 11.6037C7.17068 11.4399 7.27016 11.2911 7.39556 11.1657L14.1456 4.41569C14.2699 4.28597 14.419 4.18238 14.5839 4.11101C14.7489 4.03964 14.9264 4.00193 15.1061 4.00007C15.2858 3.99822 15.4641 4.03226 15.6304 4.10021C15.7968 4.16816 15.948 4.26865 16.075 4.39578C16.202 4.52291 16.3024 4.67413 16.3702 4.84056C16.438 5.00699 16.4719 5.18528 16.4699 5.36499C16.4679 5.5447 16.4301 5.7222 16.3586 5.88708C16.2871 6.05197 16.1834 6.20092 16.0536 6.32519L10.2591 12.1212L16.0536 17.9157C16.2426 18.1044 16.3715 18.345 16.4238 18.607C16.476 18.8689 16.4494 19.1405 16.3473 19.3874C16.2452 19.6342 16.0721 19.8452 15.85 19.9936C15.6279 20.1421 15.3667 20.2213 15.0996 20.2212Z" fill="#191F28"/>
</svg>
