<svg width="24" height="24" viewBox="0 0 24 24" fill="none" xmlns="http://www.w3.org/2000/svg">
<path fill-rule="evenodd" clip-rule="evenodd" d="M12 1.565C6.201 1.565 1.5 5.818 1.5 11.065C1.5 13.592 2.598 15.882 4.376 17.585L3.508 21.834C3.48952 21.9249 3.49667 22.0191 3.52867 22.1062C3.56066 22.1932 3.61624 22.2696 3.68918 22.3269C3.76212 22.3842 3.84956 22.42 3.94171 22.4305C4.03386 22.4409 4.1271 22.4255 4.211 22.386L8.942 20.153C9.93827 20.4267 10.9668 20.5653 12 20.565C17.799 20.565 22.5 16.312 22.5 11.065C22.5 5.818 17.799 1.565 12 1.565Z" fill="#595959"/>
</svg>
