<svg width="25" height="25" viewBox="0 0 25 25" fill="none" xmlns="http://www.w3.org/2000/svg">
<path fill-rule="evenodd" clip-rule="evenodd" d="M12.625 2.06494C6.826 2.06494 2.125 6.31794 2.125 11.5649C2.125 14.0919 3.223 16.3819 5.001 18.0849L4.133 22.3339C4.11452 22.4248 4.12167 22.5191 4.15367 22.6061C4.18566 22.6931 4.24124 22.7696 4.31418 22.8269C4.38712 22.8841 4.47456 22.92 4.56671 22.9304C4.65886 22.9409 4.7521 22.9255 4.836 22.8859L9.567 20.6529C10.5633 20.9267 11.5918 21.0652 12.625 21.0649C18.424 21.0649 23.125 16.8119 23.125 11.5649C23.125 6.31794 18.424 2.06494 12.625 2.06494Z" fill="#E2E2E2"/>
</svg>
