<svg width="24" height="24" viewBox="0 0 24 24" fill="none" xmlns="http://www.w3.org/2000/svg">
<g clip-path="url(#clip0_1021_7951)">
<path d="M19.0711 4.92893C15.1678 1.0257 8.83216 1.0257 4.92893 4.92893C1.0257 8.83216 1.0257 15.1678 4.92893 19.0711C8.83216 22.9743 15.1678 22.9743 19.0711 19.0711C22.9743 15.1678 22.9743 8.83216 19.0711 4.92893ZM14.8284 16.2426L12 13.4142L9.17157 16.2426L7.75736 14.8284L10.5858 12L7.75736 9.17157L9.17157 7.75736L12 10.5858L14.8284 7.75736L16.2426 9.17157L13.4142 12L16.2426 14.8284L14.8284 16.2426Z" fill="#8B95A1"/>
<line x1="15.5355" y1="8.46447" x2="8.46445" y2="15.5355" stroke="white" stroke-width="2" stroke-linecap="round"/>
<line x1="15.5356" y1="15.5355" x2="8.46449" y2="8.46447" stroke="white" stroke-width="2" stroke-linecap="round"/>
</g>
<defs>
<clipPath id="clip0_1021_7951">
<rect width="24" height="24" fill="white"/>
</clipPath>
</defs>
</svg>
