<svg width="24" height="24" viewBox="0 0 24 24" fill="none" xmlns="http://www.w3.org/2000/svg">
<path fill-rule="evenodd" clip-rule="evenodd" d="M10.0005 5.22849C10.0005 4.96578 10.0523 4.70566 10.1529 4.46297C10.2535 4.22029 10.4009 3.99979 10.5868 3.81407C10.7726 3.62835 10.9931 3.48105 11.2359 3.38058C11.4786 3.28011 11.7388 3.22843 12.0015 3.22849C12.2642 3.22856 12.5243 3.28037 12.767 3.38096C13.0097 3.48156 13.2302 3.62897 13.4159 3.81478C13.6016 4.00059 13.7489 4.22116 13.8494 4.4639C13.9499 4.70663 14.0015 4.96678 14.0015 5.22949C14.0013 5.76006 13.7904 6.26884 13.4152 6.64391C13.0399 7.01899 12.531 7.22963 12.0005 7.22949C11.4699 7.22936 10.9611 7.01847 10.586 6.64321C10.211 6.26795 10.0003 5.75906 10.0005 5.22849ZM10.0005 11.9995C10.0005 11.4691 10.2112 10.9604 10.5863 10.5853C10.9613 10.2102 11.47 9.99949 12.0005 9.99949C12.5309 9.99949 13.0396 10.2102 13.4147 10.5853C13.7897 10.9604 14.0005 11.4691 14.0005 11.9995C14.0005 12.5299 13.7897 13.0386 13.4147 13.4137C13.0396 13.7888 12.5309 13.9995 12.0005 13.9995C11.47 13.9995 10.9613 13.7888 10.5863 13.4137C10.2112 13.0386 10.0005 12.5299 10.0005 11.9995ZM10.0005 18.7695C10.0005 18.5068 10.0523 18.2467 10.1529 18.004C10.2535 17.7613 10.4009 17.5408 10.5868 17.3551C10.7726 17.1694 10.9931 17.0221 11.2359 16.9216C11.4786 16.8211 11.7388 16.7694 12.0015 16.7695C12.2642 16.7696 12.5243 16.8214 12.767 16.922C13.0097 17.0226 13.2302 17.17 13.4159 17.3558C13.6016 17.5416 13.7489 17.7622 13.8494 18.0049C13.9498 18.2476 14.0015 18.5078 14.0015 18.7705C14.0013 19.3011 13.7904 19.8098 13.4152 20.1849C13.0399 20.56 12.531 20.7706 12.0005 20.7705C11.4699 20.7704 10.9611 20.5595 10.586 20.1842C10.211 19.8089 10.0003 19.3001 10.0005 18.7695Z" fill="#191F28"/>
</svg>
