<svg width="131" height="131" viewBox="0 0 131 131" fill="#EBEBEB" xmlns="http://www.w3.org/2000/svg">
<mask id="path-1-inside-1_2195_11845" fill="white">
<path fill-rule="evenodd" clip-rule="evenodd" d="M120.141 101.633C127.003 91.2758 131 78.8546 131 65.5C131 29.3253 101.675 0 65.5 0C29.3253 0 0 29.3253 0 65.5C0 101.675 29.3253 131 65.5 131C80.3864 131 94.1129 126.034 105.113 117.668C103.187 115.687 102 112.982 102 110C102 103.925 106.925 99 113 99C115.725 99 118.219 99.9911 120.141 101.633Z"/>
</mask>
<path fill-rule="evenodd" clip-rule="evenodd" d="M120.141 101.633C127.003 91.2758 131 78.8546 131 65.5C131 29.3253 101.675 0 65.5 0C29.3253 0 0 29.3253 0 65.5C0 101.675 29.3253 131 65.5 131C80.3864 131 94.1129 126.034 105.113 117.668C103.187 115.687 102 112.982 102 110C102 103.925 106.925 99 113 99C115.725 99 118.219 99.9911 120.141 101.633Z" fill="#F2F4F5"/>
<path d="M120.141 101.633L119.491 102.393L120.35 103.127L120.974 102.185L120.141 101.633ZM105.113 117.668L105.719 118.464L106.617 117.78L105.83 116.971L105.113 117.668ZM130 65.5C130 78.6522 126.065 90.8821 119.307 101.08L120.974 102.185C127.942 91.6694 132 79.0571 132 65.5H130ZM65.5 1C101.122 1 130 29.8776 130 65.5H132C132 28.7731 102.227 -1 65.5 -1V1ZM1 65.5C1 29.8776 29.8776 1 65.5 1V-1C28.7731 -1 -1 28.7731 -1 65.5H1ZM65.5 130C29.8776 130 1 101.122 1 65.5H-1C-1 102.227 28.7731 132 65.5 132V130ZM104.508 116.872C93.6756 125.11 80.1602 130 65.5 130V132C80.6126 132 94.5503 126.958 105.719 118.464L104.508 116.872ZM105.83 116.971C104.078 115.169 103 112.711 103 110H101C101 113.253 102.295 116.205 104.396 118.365L105.83 116.971ZM103 110C103 104.477 107.477 100 113 100V98C106.373 98 101 103.373 101 110H103ZM113 100C115.478 100 117.744 100.9 119.491 102.393L120.79 100.872C118.695 99.082 115.972 98 113 98V100Z" mask="url(#path-1-inside-1_2195_11845)"/>
</svg>
