<svg width="25" height="25" viewBox="0 0 25 25" fill="none" xmlns="http://www.w3.org/2000/svg">
<path fill-rule="evenodd" clip-rule="evenodd" d="M21.944 8.70395L13.497 1.98695C13.3203 1.8461 13.101 1.76941 12.875 1.76941C12.6491 1.76941 12.4298 1.8461 12.253 1.98695L3.80505 8.70395C3.5696 8.89123 3.37943 9.12921 3.24871 9.40017C3.11799 9.67114 3.05008 9.9681 3.05005 10.2689V19.6869C3.05005 20.3235 3.30291 20.9339 3.75299 21.384C4.20308 21.8341 4.81353 22.0869 5.45005 22.0869H10.875V17.3349C10.875 17.0697 10.9804 16.8154 11.1679 16.6278C11.3555 16.4403 11.6098 16.3349 11.875 16.3349H13.875C14.1403 16.3349 14.3946 16.4403 14.5822 16.6278C14.7697 16.8154 14.875 17.0697 14.875 17.3349V22.0869H20.299C20.9356 22.0869 21.546 21.8341 21.9961 21.384C22.4462 20.9339 22.699 20.3235 22.699 19.6869V10.2699C22.699 9.9691 22.6311 9.67214 22.5004 9.40117C22.3697 9.13021 22.1795 8.89223 21.944 8.70495" fill="#E2E2E2"/>
</svg>
