<svg width="24" height="24" viewBox="0 0 24 24" fill="none" xmlns="http://www.w3.org/2000/svg">
<path fill-rule="evenodd" clip-rule="evenodd" d="M13.154 1.927L15.481 6.642C15.668 7.021 16.03 7.284 16.449 7.345L21.652 8.101C22.706 8.254 23.128 9.551 22.364 10.294L18.599 13.964C18.4498 14.1095 18.3381 14.2892 18.2737 14.4874C18.2092 14.6856 18.1939 14.8965 18.229 15.102L19.118 20.284C19.298 21.335 18.196 22.135 17.253 21.64L12.599 19.193C12.4146 19.096 12.2094 19.0452 12.001 19.0452C11.7926 19.0452 11.5874 19.096 11.403 19.193L6.74899 21.64C5.80499 22.135 4.70299 21.335 4.88299 20.284L5.77199 15.102C5.807 14.8965 5.79162 14.6856 5.72717 14.4874C5.66272 14.2892 5.55114 14.1096 5.40199 13.964L1.63699 10.294C0.873989 9.551 1.29499 8.254 2.34999 8.101L7.55199 7.345C7.97099 7.284 8.33399 7.021 8.52099 6.642L10.847 1.927C11.319 0.970999 12.682 0.970999 13.154 1.927Z" fill="#8B95A1"/>
</svg>
