<svg width="24" height="24" viewBox="0 0 24 24" fill="none" xmlns="http://www.w3.org/2000/svg">
<path fill-rule="evenodd" clip-rule="evenodd" d="M18 13.3H15.913L15.172 15.992C15.1149 16.2052 14.9887 16.3934 14.8131 16.5271C14.6376 16.6608 14.4226 16.7325 14.202 16.731C13.9814 16.7327 13.7665 16.661 13.5911 16.5272C13.4157 16.3934 13.2897 16.2052 13.233 15.992L12 11.514L10.768 15.992C10.7111 16.2051 10.5851 16.3932 10.4097 16.527C10.2343 16.6607 10.0195 16.7325 9.79898 16.731H9.79798C9.57744 16.7326 9.36259 16.661 9.18707 16.5275C9.01155 16.3939 8.88526 16.206 8.82798 15.993L8.08698 13.3H5.99998C5.7878 13.3 5.58432 13.2157 5.43429 13.0657C5.28426 12.9157 5.19998 12.7122 5.19998 12.5C5.19998 12.2878 5.28426 12.0843 5.43429 11.9343C5.58432 11.7843 5.7878 11.7 5.99998 11.7H7.64598L6.98098 9.281C6.94938 9.17862 6.93867 9.07094 6.94949 8.96434C6.9603 8.85774 6.99242 8.7544 7.04393 8.66045C7.09545 8.5665 7.16531 8.48386 7.24937 8.41743C7.33344 8.35099 7.42999 8.30212 7.5333 8.27372C7.63661 8.24531 7.74457 8.23794 7.85078 8.25206C7.957 8.26617 8.05929 8.30148 8.1516 8.35588C8.2439 8.41028 8.32434 8.48267 8.38814 8.56876C8.45193 8.65484 8.49778 8.75286 8.52298 8.857L9.79798 13.486L11.03 9.008C11.0871 8.79484 11.2133 8.60665 11.3888 8.47291C11.5644 8.33918 11.7793 8.26746 12 8.269C12.458 8.269 12.848 8.566 12.97 9.008L14.202 13.486L15.477 8.857C15.5332 8.65238 15.6684 8.47849 15.8528 8.37356C15.9442 8.32161 16.0448 8.28815 16.1491 8.2751C16.2534 8.26205 16.3592 8.26966 16.4605 8.2975C16.5618 8.32534 16.6566 8.37286 16.7396 8.43736C16.8225 8.50185 16.892 8.58205 16.9439 8.67337C16.9959 8.7647 17.0293 8.86537 17.0424 8.96962C17.0554 9.07388 17.0478 9.17968 17.02 9.281L16.354 11.7H18C18.105 11.7 18.2091 11.7207 18.3061 11.7609C18.4032 11.8011 18.4914 11.86 18.5657 11.9343C18.6399 12.0086 18.6989 12.0968 18.7391 12.1939C18.7793 12.2909 18.8 12.3949 18.8 12.5C18.8 12.6051 18.7793 12.7091 18.7391 12.8061C18.6989 12.9032 18.6399 12.9914 18.5657 13.0657C18.4914 13.14 18.4032 13.1989 18.3061 13.2391C18.2091 13.2793 18.105 13.3 18 13.3ZM21 1.946H2.99998C2.76128 1.946 2.53236 2.04082 2.36358 2.2096C2.1948 2.37839 2.09998 2.6073 2.09998 2.846C2.09998 3.08469 2.1948 3.31361 2.36358 3.4824C2.53236 3.65118 2.76128 3.746 2.99998 3.746V20.846C2.99998 21.1112 3.10533 21.3656 3.29287 21.5531C3.48041 21.7406 3.73476 21.846 3.99998 21.846H20C20.2652 21.846 20.5195 21.7406 20.7071 21.5531C20.8946 21.3656 21 21.1112 21 20.846V3.746C21.2387 3.746 21.4676 3.65118 21.6364 3.4824C21.8052 3.31361 21.9 3.08469 21.9 2.846C21.9 2.6073 21.8052 2.37839 21.6364 2.2096C21.4676 2.04082 21.2387 1.946 21 1.946Z" fill="#8B95A1"/>
</svg>
