<svg width="24" height="24" viewBox="0 0 24 24" fill="none" xmlns="http://www.w3.org/2000/svg">
<path fill-rule="evenodd" clip-rule="evenodd" d="M16.887 6.644C16.8871 7.28682 16.7605 7.92336 16.5146 8.51727C16.2686 9.11118 15.9081 9.65084 15.4536 10.1054C14.9991 10.56 14.4595 10.9206 13.8657 11.1667C13.2718 11.4128 12.6353 11.5394 11.9925 11.5395C10.6943 11.5396 9.44914 11.024 8.53105 10.1061C7.61297 9.18824 7.09712 7.94323 7.09699 6.645C7.09692 6.00218 7.22347 5.36564 7.46941 4.77172C7.71534 4.17781 8.07585 3.63815 8.53035 3.18356C9.44824 2.26548 10.6933 1.74963 11.9915 1.7495C13.2897 1.74936 14.5348 2.26496 15.4529 3.18286C16.371 4.10075 16.8869 5.34576 16.887 6.644ZM11.992 13.037C4.94299 13.037 2.20099 17.523 2.20099 19.61C2.20099 21.696 8.03799 22.252 11.992 22.252C15.946 22.252 21.783 21.696 21.783 19.61C21.783 17.523 19.041 13.037 11.992 13.037Z" fill="#E2E2E2"/>
</svg>
