<svg width="25" height="25" viewBox="0 0 25 25" fill="none" xmlns="http://www.w3.org/2000/svg">
<path fill-rule="evenodd" clip-rule="evenodd" d="M17.012 7.14401C17.0121 7.78683 16.8855 8.42337 16.6396 9.01729C16.3936 9.6112 16.0331 10.1509 15.5786 10.6054C15.1241 11.06 14.5845 11.4207 13.9907 11.6667C13.3968 11.9128 12.7603 12.0394 12.1175 12.0395C10.8193 12.0396 9.57414 11.524 8.65605 10.6062C7.73797 9.68826 7.22212 8.44325 7.22199 7.14501C7.22192 6.50219 7.34847 5.86565 7.59441 5.27174C7.84034 4.67782 8.20085 4.13817 8.65535 3.68358C9.57324 2.76549 10.8183 2.24964 12.1165 2.24951C13.4147 2.24938 14.6598 2.76497 15.5779 3.68287C16.496 4.60077 17.0119 5.84578 17.012 7.14401ZM12.117 13.537C5.06799 13.537 2.32599 18.023 2.32599 20.11C2.32599 22.196 8.16299 22.752 12.117 22.752C16.071 22.752 21.908 22.196 21.908 20.11C21.908 18.023 19.166 13.537 12.117 13.537Z" fill="#437CED"/>
</svg>
