<svg width="25" height="25" viewBox="0 0 25 25" fill="none" xmlns="http://www.w3.org/2000/svg">
<path fill-rule="evenodd" clip-rule="evenodd" d="M17.0119 7.14401C17.012 7.78683 16.8854 8.42337 16.6395 9.01729C16.3936 9.6112 16.0331 10.1509 15.5786 10.6054C15.1241 11.06 14.5845 11.4207 13.9906 11.6667C13.3968 11.9128 12.7602 12.0394 12.1174 12.0395C10.8192 12.0396 9.57408 11.524 8.65599 10.6062C7.73791 9.68826 7.22206 8.44325 7.22193 7.14501C7.22186 6.50219 7.34841 5.86565 7.59435 5.27174C7.84028 4.67782 8.20079 4.13817 8.65529 3.68358C9.57318 2.76549 10.8182 2.24964 12.1164 2.24951C13.4147 2.24938 14.6598 2.76497 15.5779 3.68287C16.4959 4.60077 17.0118 5.84578 17.0119 7.14401ZM12.1169 13.537C5.06793 13.537 2.32593 18.023 2.32593 20.11C2.32593 22.196 8.16293 22.752 12.1169 22.752C16.0709 22.752 21.9079 22.196 21.9079 20.11C21.9079 18.023 19.1659 13.537 12.1169 13.537Z" fill="#E2E2E2"/>
</svg>
