<svg width="24" height="24" viewBox="0 0 24 24" fill="none" xmlns="http://www.w3.org/2000/svg">
<path fill-rule="evenodd" clip-rule="evenodd" d="M12.335 5.454L3.27301 14.516L2.03701 19.126L1.22401 22.163C1.20143 22.2478 1.20154 22.3371 1.22433 22.4219C1.24713 22.5067 1.29181 22.584 1.35389 22.6461C1.41598 22.7082 1.49329 22.7529 1.57808 22.7757C1.66287 22.7985 1.75216 22.7986 1.83701 22.776L4.87201 21.962L9.48301 20.726H9.48401L18.546 11.664L12.336 5.454H12.335ZM22.293 6.504L17.497 1.707C17.4042 1.61405 17.294 1.54031 17.1727 1.49C17.0514 1.43969 16.9213 1.4138 16.79 1.4138C16.6587 1.4138 16.5286 1.43969 16.4073 1.49C16.286 1.54031 16.1758 1.61405 16.083 1.707L13.608 4.181L19.819 10.392L22.293 7.917C22.386 7.82421 22.4597 7.714 22.51 7.59269C22.5603 7.47137 22.5862 7.34133 22.5862 7.21C22.5862 7.07866 22.5603 6.94862 22.51 6.8273C22.4597 6.70599 22.386 6.59578 22.293 6.503" fill="#8B95A1"/>
</svg>
