<svg width="24" height="24" viewBox="0 0 24 24" fill="none" xmlns="http://www.w3.org/2000/svg">
<path fill-rule="evenodd" clip-rule="evenodd" d="M21.714 13.088L8.046 21.993C7.89509 22.0914 7.72041 22.1471 7.54042 22.1544C7.36044 22.1617 7.18183 22.1202 7.02346 22.0344C6.8651 21.9485 6.73286 21.8215 6.64072 21.6667C6.54858 21.5119 6.49996 21.3351 6.5 21.155V3.345C6.49996 3.16487 6.54858 2.98807 6.64072 2.83328C6.73286 2.6785 6.8651 2.55148 7.02346 2.46563C7.18183 2.37979 7.36044 2.33832 7.54042 2.34561C7.72041 2.35289 7.89509 2.40865 8.046 2.507L21.714 11.412C21.8535 11.5028 21.9681 11.6271 22.0474 11.7734C22.1268 11.9197 22.1683 12.0835 22.1683 12.25C22.1683 12.4165 22.1268 12.5803 22.0474 12.7266C21.9681 12.873 21.8535 12.9972 21.714 13.088Z" fill="#8B95A1"/>
</svg>
