<svg width="22" height="22" viewBox="0 0 22 22" fill="#191F28" xmlns="http://www.w3.org/2000/svg">
<path fill-rule="evenodd" clip-rule="evenodd" d="M21.084 19.081C20.987 18.523 20.502 18.114 19.934 18.114H19.352L19.352 8.87898L19.348 8.62798C19.216 4.13098 15.529 0.526978 11 0.526978C6.388 0.526978 2.647 4.26598 2.647 8.87998L2.647 18.115H2.065C1.498 18.115 1.013 18.523 0.915 19.082L0.5 21.473L21.5 21.473L21.084 19.081ZM10.1 6.21998C10.1 5.72398 10.503 5.31998 11 5.31998C11.498 5.31998 11.9 5.72398 11.9 6.21998L11.9 9.93598C11.9 10.434 11.498 10.838 11 10.838C10.503 10.838 10.1 10.434 10.1 9.93598L10.1 6.21998ZM11.001 12.339C11.653 12.339 12.184 12.868 12.184 13.522C12.184 14.175 11.654 14.705 11.001 14.705C10.346 14.705 9.816 14.175 9.816 13.522C9.816 12.869 10.346 12.339 11.001 12.339Z"/>
</svg>
