<svg width="25" height="25" viewBox="0 0 25 25" fill="none" xmlns="http://www.w3.org/2000/svg">
<g clip-path="url(#clip0_652_2218)">
<path fill-rule="evenodd" clip-rule="evenodd" d="M12.375 1.11206C11.1815 1.11206 10.0369 1.58617 9.19302 2.43008C8.34911 3.27399 7.875 4.41859 7.875 5.61206V11.8151C7.875 13.0085 8.34911 14.1531 9.19302 14.997C10.0369 15.841 11.1815 16.3151 12.375 16.3151C13.5685 16.3151 14.7131 15.841 15.557 14.997C16.4009 14.1531 16.875 13.0085 16.875 11.8151V5.61206C16.875 4.41859 16.4009 3.27399 15.557 2.43008C14.7131 1.58617 13.5685 1.11206 12.375 1.11206Z" fill="#8B95A1"/>
<path fill-rule="evenodd" clip-rule="evenodd" d="M20.9759 11.8151C20.9759 11.5498 20.8705 11.2955 20.683 11.108C20.4955 10.9204 20.2411 10.8151 19.9759 10.8151C19.7107 10.8151 19.4563 10.9204 19.2688 11.108C19.0813 11.2955 18.9759 11.5498 18.9759 11.8151C18.974 13.5652 18.278 15.2431 17.0405 16.4806C15.8029 17.7182 14.125 18.4142 12.3749 18.4161C10.6251 18.4139 8.94762 17.7179 7.71034 16.4806C6.47305 15.2433 5.77702 13.5658 5.7749 11.8161C5.7749 11.5508 5.66955 11.2965 5.48201 11.109C5.29447 10.9214 5.04012 10.8161 4.7749 10.8161C4.50969 10.8161 4.25533 10.9214 4.0678 11.109C3.88026 11.2965 3.7749 11.5508 3.7749 11.8161C3.7749 16.2191 7.1029 19.8561 11.3749 20.3531V23.5001C11.3749 23.7653 11.4803 24.0196 11.6678 24.2072C11.8553 24.3947 12.1097 24.5001 12.3749 24.5001C12.6401 24.5001 12.8945 24.3947 13.082 24.2072C13.2695 24.0196 13.3749 23.7653 13.3749 23.5001V20.3531C17.6479 19.8551 20.9759 16.2191 20.9759 11.8151Z" fill="#8B95A1"/>
</g>
<defs>
<clipPath id="clip0_652_2218">
<rect width="24" height="24" fill="white" transform="translate(0.375 0.5)"/>
</clipPath>
</defs>
</svg>
